<svg width="1440" height="1024" viewBox="0 0 1440 1024" fill="none" xmlns="http://www.w3.org/2000/svg">
<g clip-path="url(#clip0_1_42)">
<rect width="1440" height="1024" fill="#74DFD5"/>
<rect width="1440" height="1024" fill="#D9E5F3"/>
<path d="M1333.21 734.897C1794.82 658.752 2276.07 741.096 2459 791.787V930L-499.505 915.778C-501.388 897.544 -504.023 843.936 -499.505 775.376C-351.721 815.856 756.189 830.078 1333.21 734.897Z" fill="#B8CCE4"/>
<path d="M488.772 790.429C281.838 716.104 291.158 556.122 -52.8359 598.296L-120.693 1013.19L1422.4 1221.73C1432.33 1167.16 1460.02 1006.46 1491.34 800.267C1394.73 909.23 695.707 864.754 488.772 790.429Z" fill="#CBDAEC"/>
<path d="M1211.5 787L1243.11 850H1179.89L1211.5 787Z" fill="white"/>
<rect x="1180" y="850" width="63" height="96" fill="white"/>
<path d="M1156 932.867L1176 914V946.145L1156 972V932.867Z" fill="white"/>
<path d="M1267 932.867L1247 914V946.145L1267 972V932.867Z" fill="white"/>
<rect x="1209" y="915" width="5" height="56" fill="white"/>
<circle cx="1211.5" cy="889.5" r="14.5" fill="#D9E5F3"/>
<circle cx="1316.5" cy="534.5" r="90.5" fill="white"/>
<circle cx="1" cy="497" r="179" fill="white"/>
</g>
<defs>
<clipPath id="clip0_1_42">
<rect width="1440" height="1024" fill="white"/>
</clipPath>
</defs>
</svg>
